<svg width="1080" height="1080" viewBox="0 0 1080 1080" fill="none" xmlns="http://www.w3.org/2000/svg">
<rect width="1080" height="1080" fill="#700CF9"/>
<path d="M220.572 404.453C239.81 404.453 255.239 409.308 266.858 419.018C278.477 428.728 285.715 441.675 288.572 457.858H250.858C249.334 450.242 245.905 444.15 240.572 439.581C235.238 435.011 228.286 432.726 219.715 432.726C212.857 432.726 207.524 434.345 203.714 437.581C199.905 440.818 198 445.197 198 450.718C198 455.097 199.524 458.62 202.571 461.285C205.619 463.951 209.429 466.045 214 467.568C218.572 469.091 225.143 470.9 233.715 472.994C245.715 475.66 255.429 478.516 262.858 481.562C270.477 484.418 276.953 489.082 282.287 495.556C287.811 501.839 290.572 510.406 290.572 521.258C290.572 534.776 285.239 545.724 274.572 554.101C264.096 562.478 249.905 566.667 232 566.667C211.429 566.667 194.952 562.097 182.571 552.959C170.19 543.629 162.666 530.397 160 513.262H198.571C199.524 521.068 202.952 527.256 208.857 531.825C214.762 536.204 222.476 538.394 232 538.394C238.858 538.394 244.096 536.775 247.715 533.539C251.334 530.112 253.143 525.733 253.143 520.402C253.143 515.832 251.524 512.12 248.286 509.264C245.239 506.408 241.334 504.218 236.572 502.695C232 501.172 225.429 499.363 216.857 497.269C205.048 494.604 195.429 491.938 188 489.273C180.762 486.417 174.476 481.943 169.142 475.85C164 469.758 161.428 461.38 161.428 450.718C161.428 437.01 166.666 425.872 177.143 417.305C187.619 408.737 202.095 404.453 220.572 404.453Z" fill="white"/>
<path d="M401.181 530.112V564.668H380.038C362.324 564.668 348.705 560.384 339.181 551.816C329.847 543.249 325.181 528.969 325.181 508.978V440.437H303.18V406.453H325.181V367.327H365.467V406.453H400.896V440.437H365.467V509.549C365.467 517.165 366.991 522.496 370.038 525.542C373.086 528.589 378.229 530.112 385.467 530.112H401.181Z" fill="white"/>
<path d="M488.203 404.453C501.537 404.453 512.965 407.595 522.489 413.878C532.013 420.161 538.775 428.633 542.775 439.295V406.453H582.776V564.668H542.775V531.54C538.775 542.201 532.013 550.769 522.489 557.242C512.965 563.525 501.537 566.667 488.203 566.667C474.87 566.667 462.869 563.43 452.203 556.957C441.536 550.483 433.155 541.154 427.059 528.969C421.155 516.594 418.202 502.124 418.202 485.56C418.202 468.996 421.155 454.622 427.059 442.436C433.155 430.061 441.536 420.637 452.203 414.163C462.869 407.69 474.87 404.453 488.203 404.453ZM500.775 439.581C488.203 439.581 478.108 443.674 470.489 451.861C462.869 460.048 459.06 471.281 459.06 485.56C459.06 499.839 462.869 511.073 470.489 519.259C478.108 527.256 488.203 531.254 500.775 531.254C512.965 531.254 522.965 527.161 530.775 518.974C538.775 510.597 542.775 499.459 542.775 485.56C542.775 471.471 538.775 460.333 530.775 452.146C522.965 443.769 512.965 439.581 500.775 439.581Z" fill="white"/>
<path d="M707.889 564.668L655.603 495.556V564.668H615.317V353.333H655.603V472.138L707.603 406.453H755.318L688.746 485.274L757.033 564.668H707.889Z" fill="white"/>
<path d="M921.481 479.563C921.481 483.561 921.005 488.13 920.053 493.271H804.052C804.623 507.36 808.432 517.736 815.48 524.4C822.528 531.064 831.29 534.395 841.766 534.395C851.1 534.395 858.814 532.111 864.909 527.541C871.195 522.972 875.195 516.784 876.91 508.978H919.481C917.386 520.021 912.91 529.921 906.053 538.679C899.195 547.437 890.338 554.291 879.481 559.241C868.814 564.192 856.909 566.667 843.766 566.667C828.338 566.667 814.623 563.43 802.623 556.957C790.623 550.293 781.289 540.869 774.623 528.684C767.956 516.499 764.622 502.124 764.622 485.56C764.622 468.996 767.956 454.622 774.623 442.436C781.289 430.061 790.623 420.637 802.623 414.163C814.623 407.69 828.338 404.453 843.766 404.453C859.386 404.453 873.005 407.69 884.624 414.163C896.434 420.637 905.481 429.585 911.767 441.009C918.243 452.242 921.481 465.093 921.481 479.563ZM880.91 475.565C881.481 462.618 878.052 452.813 870.624 446.149C863.386 439.485 854.433 436.154 843.766 436.154C832.909 436.154 823.766 439.485 816.337 446.149C808.909 452.813 804.813 462.618 804.052 475.565H880.91Z" fill="white"/>
<path d="M395.906 632.612L370.914 725.493H344.747L324.787 657.928L304.324 725.493H278.157L253.333 632.612H276.983L292.079 704.368L312.71 632.612H337.703L358.502 704.368L373.765 632.612H395.906Z" fill="white"/>
<path d="M429.015 632.612V725.493H405.365V632.612H429.015Z" fill="white"/>
<path d="M497.73 705.207V725.493H485.317C474.918 725.493 466.923 722.978 461.332 717.949C455.852 712.919 453.113 704.536 453.113 692.8V652.563H440.197V632.612H453.113V609.643H476.763V632.612H497.562V652.563H476.763V693.135C476.763 697.606 477.658 700.736 479.447 702.524C481.236 704.313 484.255 705.207 488.504 705.207H497.73Z" fill="white"/>
<path d="M567.77 631.27C578.505 631.27 587.059 634.791 593.433 641.833C599.807 648.874 602.994 658.766 602.994 671.508V725.493H579.511V674.19C579.511 666.813 577.61 661.113 573.809 657.089C570.007 652.954 564.807 650.886 558.209 650.886C551.5 650.886 546.133 653.066 542.107 657.425C538.081 661.784 536.069 668.043 536.069 676.202V725.493H512.418V601.428H536.069V651.221C538.529 644.962 542.554 640.1 548.145 636.635C553.848 633.059 560.39 631.27 567.77 631.27Z" fill="white"/>
<path d="M613.255 713.422C613.255 710.069 614.485 707.219 616.945 704.871C619.405 702.412 622.201 701.183 625.332 701.183C628.239 701.183 630.923 702.412 633.383 704.871C635.843 707.219 637.073 710.069 637.073 713.422C637.073 716.887 635.843 719.793 633.383 722.14C631.035 724.375 628.351 725.493 625.332 725.493C622.201 725.493 619.405 724.375 616.945 722.14C614.485 719.905 613.255 716.999 613.255 713.422Z" fill="white"/>
<path d="M736.872 632.612V725.493H713.221V706.716C710.761 712.975 706.68 717.893 700.977 721.469C695.386 724.934 688.9 726.667 681.52 726.667C670.785 726.667 662.231 723.146 655.857 716.104C649.483 709.063 646.296 699.227 646.296 686.597V632.612H669.779V683.914C669.779 691.291 671.68 697.047 675.481 701.183C679.283 705.207 684.427 707.219 690.913 707.219C697.734 707.219 703.157 705.039 707.183 700.68C711.209 696.321 713.221 690.062 713.221 681.903V632.612H736.872Z" fill="white"/>
<path d="M788.083 631.438C799.377 631.438 808.435 634.288 815.256 639.988C822.077 645.689 826.326 653.289 828.003 662.79H805.863C804.968 658.319 802.955 654.742 799.824 652.06C796.693 649.377 792.612 648.036 787.58 648.036C783.554 648.036 780.423 648.986 778.187 650.886C775.95 652.786 774.832 655.357 774.832 658.598C774.832 661.169 775.727 663.237 777.516 664.802C779.305 666.366 781.541 667.596 784.225 668.49C786.909 669.384 790.767 670.446 795.799 671.675C802.843 673.24 808.546 674.917 812.907 676.705C817.38 678.382 821.182 681.12 824.313 684.92C827.556 688.609 829.178 693.638 829.178 700.009C829.178 707.945 826.047 714.372 819.784 719.29C813.634 724.208 805.304 726.667 794.792 726.667C782.716 726.667 773.043 723.984 765.774 718.619C758.506 713.142 754.089 705.374 752.524 695.315H775.168C775.727 699.898 777.739 703.53 781.206 706.213C784.672 708.783 789.201 710.069 794.792 710.069C798.818 710.069 801.893 709.119 804.018 707.219C806.142 705.207 807.205 702.636 807.205 699.506C807.205 696.824 806.254 694.644 804.353 692.968C802.564 691.291 800.271 690.006 797.476 689.112C794.792 688.218 790.934 687.156 785.902 685.926C778.969 684.361 773.322 682.797 768.961 681.232C764.712 679.555 761.022 676.929 757.891 673.352C754.872 669.775 753.362 664.857 753.362 658.598C753.362 650.551 756.437 644.012 762.588 638.983C768.738 633.953 777.236 631.438 788.083 631.438Z" fill="white"/>
<path d="M405.197 605.572C405.197 602.219 406.427 599.369 408.887 597.022C411.347 594.563 414.143 593.333 417.274 593.333C420.181 593.333 422.865 594.563 425.325 597.022C427.785 599.369 429.015 602.219 429.015 605.572C429.015 609.037 427.785 611.943 425.325 614.29C422.977 616.526 420.293 617.643 417.274 617.643C414.143 617.643 411.347 616.526 408.887 614.29C406.427 612.055 405.197 609.149 405.197 605.572Z" fill="white"/>
</svg>
