<svg width="1000" height="200" viewBox="0 0 1000 200" fill="none" xmlns="http://www.w3.org/2000/svg">
<rect width="1000" height="200" fill="#292945"/>
<path d="M69.5035 74.2942C79.6681 74.2942 87.8199 76.8593 93.9589 81.9896C100.098 87.1199 103.922 93.9603 105.432 102.511H85.5052C84.7001 98.487 82.8885 95.268 80.0706 92.8537C77.2527 90.4395 73.5794 89.2324 69.0506 89.2324C65.4275 89.2324 62.6096 90.0874 60.5968 91.7975C58.584 93.5076 57.5776 95.8213 57.5776 98.7385C57.5776 101.052 58.3828 102.913 59.993 104.321C61.6032 105.73 63.616 106.836 66.0314 107.641C68.4467 108.446 71.9188 109.401 76.4476 110.508C82.7879 111.916 87.9205 113.425 91.8455 115.035C95.8711 116.544 99.2928 119.008 102.111 122.428C105.029 125.748 106.489 130.275 106.489 136.008C106.489 143.151 103.671 148.935 98.0348 153.361C92.4996 157.787 85.002 160 75.5418 160C64.6727 160 55.9674 157.586 49.4258 152.757C42.8842 147.828 38.909 140.837 37.5 131.784H57.8796C58.3828 135.908 60.1943 139.177 63.3141 141.591C66.4339 143.905 70.5098 145.062 75.5418 145.062C79.1649 145.062 81.9325 144.207 83.8446 142.497C85.7568 140.686 86.7129 138.372 86.7129 135.556C86.7129 133.142 85.8574 131.18 84.1465 129.671C82.5363 128.162 80.4732 127.005 77.9572 126.201C75.5418 125.396 72.0698 124.44 67.541 123.334C61.3013 121.925 56.219 120.517 52.294 119.109C48.4697 117.6 45.1486 115.236 42.3307 112.017C39.6134 108.798 38.2548 104.372 38.2548 98.7385C38.2548 91.4957 41.0224 85.611 46.5576 81.0843C52.0928 76.5576 59.7414 74.2942 69.5035 74.2942Z" fill="white"/>
<path d="M164.929 140.686V158.944H153.758C144.399 158.944 137.203 156.68 132.171 152.154C127.239 147.627 124.774 140.082 124.774 129.52V93.3064H113.15V75.3504H124.774V54.6784H146.059V75.3504H164.778V93.3064H146.059V129.822C146.059 133.846 146.864 136.662 148.474 138.272C150.085 139.881 152.802 140.686 156.626 140.686H164.929Z" fill="white"/>
<path d="M210.907 74.2942C217.952 74.2942 223.99 75.954 229.022 79.2736C234.054 82.5932 237.627 87.0696 239.74 92.7029V75.3504H260.875V158.944H239.74V141.441C237.627 147.074 234.054 151.6 229.022 155.021C223.99 158.34 217.952 160 210.907 160C203.862 160 197.522 158.29 191.886 154.87C186.25 151.45 181.822 146.52 178.602 140.082C175.482 133.544 173.922 125.899 173.922 117.147C173.922 108.395 175.482 100.801 178.602 94.3626C181.822 87.8241 186.25 82.8447 191.886 79.4245C197.522 76.0043 203.862 74.2942 210.907 74.2942ZM217.549 92.8537C210.907 92.8537 205.573 95.0165 201.548 99.342C197.522 103.668 195.509 109.603 195.509 117.147C195.509 124.692 197.522 130.627 201.548 134.952C205.573 139.177 210.907 141.29 217.549 141.29C223.99 141.29 229.274 139.127 233.4 134.801C237.627 130.375 239.74 124.49 239.74 117.147C239.74 109.703 237.627 103.818 233.4 99.4929C229.274 95.0668 223.99 92.8537 217.549 92.8537Z" fill="white"/>
<path d="M326.979 158.944L299.353 122.428V158.944H278.068V47.2848H299.353V110.055L326.828 75.3504H352.038L316.865 116.996L352.944 158.944H326.979Z" fill="white"/>
<path d="M439.831 113.978C439.831 116.091 439.579 118.505 439.076 121.221H377.787C378.088 128.665 380.101 134.147 383.825 137.668C387.549 141.189 392.178 142.949 397.713 142.949C402.645 142.949 406.72 141.742 409.941 139.328C413.262 136.914 415.376 133.644 416.281 129.52H438.774C437.667 135.355 435.302 140.585 431.679 145.213C428.056 149.84 423.376 153.461 417.64 156.077C412.004 158.692 405.714 160 398.77 160C390.618 160 383.372 158.29 377.032 154.87C370.691 151.349 365.76 146.37 362.238 139.932C358.715 133.494 356.954 125.899 356.954 117.147C356.954 108.395 358.715 100.801 362.238 94.3626C365.76 87.8241 370.691 82.8447 377.032 79.4245C383.372 76.0043 390.618 74.2942 398.77 74.2942C407.022 74.2942 414.218 76.0043 420.357 79.4245C426.597 82.8447 431.377 87.5726 434.698 93.6082C438.12 99.5432 439.831 106.333 439.831 113.978ZM418.395 111.866C418.697 105.026 416.885 99.845 412.96 96.3242C409.136 92.8034 404.406 91.043 398.77 91.043C393.033 91.043 388.203 92.8034 384.278 96.3242C380.353 99.845 378.189 105.026 377.787 111.866H418.395Z" fill="white"/>
<path d="M572.555 75.3504L550.062 158.944H526.513L508.549 98.1349L490.131 158.944H466.582L444.24 75.3504H465.525L479.111 139.932L497.679 75.3504H520.172L538.891 139.932L552.629 75.3504H572.555Z" fill="white"/>
<path d="M602.354 75.3504V158.944H581.068V75.3504H602.354Z" fill="white"/>
<path d="M664.197 140.686V158.944H653.026C643.666 158.944 636.471 156.68 631.439 152.154C626.507 147.627 624.041 140.082 624.041 129.52V93.3064H612.418V75.3504H624.041V54.6784H645.327V75.3504H664.046V93.3064H645.327V129.822C645.327 133.846 646.132 136.662 647.742 138.272C649.352 139.881 652.07 140.686 655.894 140.686H664.197Z" fill="white"/>
<path d="M727.233 74.1433C736.895 74.1433 744.594 77.312 750.33 83.6494C756.067 89.9868 758.935 98.8894 758.935 110.357V158.944H737.8V112.771C737.8 106.132 736.09 101.002 732.668 97.3805C729.246 93.6585 724.566 91.7975 718.629 91.7975C712.59 91.7975 707.76 93.7591 704.136 97.6822C700.513 101.605 698.702 107.239 698.702 114.582V158.944H677.417V47.2848H698.702V92.0993C700.916 86.466 704.539 82.0902 709.571 78.9718C714.704 75.7528 720.591 74.1433 727.233 74.1433Z" fill="white"/>
<path d="M768.17 148.08C768.17 145.062 769.277 142.497 771.491 140.384C773.705 138.171 776.221 137.065 779.039 137.065C781.655 137.065 784.071 138.171 786.285 140.384C788.499 142.497 789.606 145.062 789.606 148.08C789.606 151.198 788.499 153.813 786.285 155.926C784.171 157.938 781.756 158.944 779.039 158.944C776.221 158.944 773.705 157.938 771.491 155.926C769.277 153.914 768.17 151.299 768.17 148.08Z" fill="white"/>
<path d="M879.425 75.3504V158.944H858.139V142.044C855.925 147.677 852.252 152.103 847.119 155.322C842.087 158.441 836.25 160 829.608 160C819.947 160 812.248 156.831 806.511 150.494C800.775 144.156 797.906 135.304 797.906 123.937V75.3504H819.041V121.523C819.041 128.162 820.752 133.343 824.174 137.065C827.595 140.686 832.225 142.497 838.062 142.497C844.201 142.497 849.082 140.535 852.705 136.612C856.328 132.689 858.139 127.056 858.139 119.712V75.3504H879.425Z" fill="white"/>
<path d="M925.515 74.2942C935.68 74.2942 943.831 76.8593 949.97 81.9896C956.109 87.1199 959.934 93.9603 961.443 102.511H941.517C940.711 98.487 938.9 95.268 936.082 92.8537C933.264 90.4395 929.591 89.2324 925.062 89.2324C921.439 89.2324 918.621 90.0874 916.608 91.7975C914.595 93.5076 913.589 95.8213 913.589 98.7385C913.589 101.052 914.394 102.913 916.004 104.321C917.615 105.73 919.627 106.836 922.043 107.641C924.458 108.446 927.93 109.401 932.459 110.508C938.799 111.916 943.932 113.425 947.857 115.035C951.883 116.544 955.304 119.008 958.122 122.428C961.041 125.748 962.5 130.275 962.5 136.008C962.5 143.151 959.682 148.935 954.046 153.361C948.511 157.787 941.013 160 931.553 160C920.684 160 911.979 157.586 905.437 152.757C898.896 147.828 894.92 140.837 893.511 131.784H913.891C914.394 135.908 916.206 139.177 919.326 141.591C922.445 143.905 926.521 145.062 931.553 145.062C935.176 145.062 937.944 144.207 939.856 142.497C941.768 140.686 942.724 138.372 942.724 135.556C942.724 133.142 941.869 131.18 940.158 129.671C938.548 128.162 936.485 127.005 933.969 126.201C931.553 125.396 928.081 124.44 923.552 123.334C917.313 121.925 912.23 120.517 908.305 119.109C904.481 117.6 901.16 115.236 898.342 112.017C895.625 108.798 894.266 104.372 894.266 98.7385C894.266 91.4957 897.034 85.611 902.569 81.0843C908.104 76.5576 915.753 74.2942 925.515 74.2942Z" fill="white"/>
<path d="M580.917 51.015C580.917 47.9972 582.024 45.432 584.239 43.3196C586.453 41.1065 588.969 40 591.787 40C594.403 40 596.819 41.1065 599.033 43.3196C601.247 45.432 602.354 47.9972 602.354 51.015C602.354 54.1334 601.247 56.7488 599.033 58.8613C596.919 60.8732 594.504 61.8791 591.787 61.8791C588.969 61.8791 586.453 60.8732 584.239 58.8613C582.024 56.8494 580.917 54.234 580.917 51.015Z" fill="white"/>
</svg>
